<?xml version="1.0" encoding="utf-8"?>
<!-- Generator: Adobe Illustrator 19.0.0, SVG Export Plug-In . SVG Version: 6.00 Build 0)  -->
<svg version="1.1" id="Слой_1" xmlns="http://www.w3.org/2000/svg" xmlns:xlink="http://www.w3.org/1999/xlink" x="0px" y="0px"
	 viewBox="0 0 90 42" style="enable-background:new 0 0 90 42;" xml:space="preserve">
<style type="text/css">
	.st0{fill:#FFFFFF;}
</style>
<g id="XMLID_421_">
	<path id="XMLID_465_" class="st0" d="M0.8,0.3h30.6c0.4,0,0.8,0.3,0.8,0.8v5.1c0,0.4-0.3,0.8-0.8,0.8H8.8C8.4,6.9,8,7.3,8,7.7v10.6
		c0,0.4,0.3,0.8,0.8,0.8h15.1c0.4,0,0.8,0.3,0.8,0.8v5c0,0.4-0.3,0.8-0.8,0.8H8.8C8.4,25.6,8,26,8,26.4v13.4c0,0.4-0.3,0.8-0.8,0.8
		H0.8c-0.4,0-0.8-0.3-0.8-0.8V1.1C0,0.7,0.3,0.3,0.8,0.3"/>
	<path id="XMLID_462_" class="st0" d="M55.8,0.3c11.2,0,17.2,6,17.2,13.8s-6,13.8-17.2,13.8h-9.6c-0.4,0-0.8,0.3-0.8,0.8v11.1
		c0,0.4-0.3,0.8-0.8,0.8h-6.5c-0.4,0-0.8-0.3-0.8-0.8V1.1c0-0.4,0.3-0.8,0.8-0.8C38.2,0.3,55.8,0.3,55.8,0.3z M45.5,7.7v12.8
		c0,0.4,0.3,0.8,0.8,0.8h9.6c5.5,0,8.9-3.4,8.9-7.2c0-3.7-3.4-7.2-8.9-7.2h-9.6C45.9,6.9,45.5,7.3,45.5,7.7"/>
	<path id="XMLID_461_" class="st0" d="M87.8,28.5h-5.9c-0.4,0-0.8-0.3-0.8-0.8V7.1c0-0.4-0.3-0.8-0.8-0.8h-2.8
		c-0.4,0-0.8-0.3-0.8-0.8V1.1c0-0.4,0.3-0.8,0.8-0.8h10.2c0.4,0,0.8,0.3,0.8,0.8v26.6C88.6,28.1,88.3,28.5,87.8,28.5"/>
	<path id="XMLID_460_" class="st0" d="M89.5,37.1c0,2.5-2,4.6-4.6,4.6c-2.5,0-4.6-2-4.6-4.6c0-2.5,2-4.6,4.6-4.6
		C87.4,32.5,89.5,34.6,89.5,37.1"/>
</g>
</svg>
