<?xml version="1.0" encoding="utf-8"?>
<!-- Generator: Adobe Illustrator 19.0.0, SVG Export Plug-In . SVG Version: 6.00 Build 0)  -->
<svg version="1.1" id="Слой_1" xmlns="http://www.w3.org/2000/svg" xmlns:xlink="http://www.w3.org/1999/xlink" x="0px" y="0px"
	 viewBox="0 0 315 42" style="enable-background:new 0 0 315 42;" xml:space="preserve">
<style type="text/css">
	.st0{fill:#FFFFFF;}
</style>
<g id="XMLID_405_">
	<path id="XMLID_406_" class="st0" d="M0.8,0.3h30.6c0.4,0,0.8,0.3,0.8,0.8v5c0,0.4-0.3,0.8-0.8,0.8H8.8C8.4,7,8.1,7.3,8.1,7.7v10.6
		c0,0.4,0.3,0.8,0.8,0.8H24c0.4,0,0.8,0.3,0.8,0.8v5c0,0.4-0.3,0.8-0.8,0.8H8.8c-0.4,0-0.8,0.3-0.8,0.8v13.4c0,0.4-0.3,0.8-0.8,0.8
		H0.8c-0.4,0-0.8-0.3-0.8-0.8V1.1C0,0.7,0.4,0.3,0.8,0.3"/>
	<path id="XMLID_407_" class="st0" d="M48.7,10.7c9.2,0,16.1,6.9,16.1,15.5S58,41.7,48.7,41.7c-9.1,0-16.1-6.9-16.1-15.5
		C32.7,17.6,39.6,10.7,48.7,10.7 M48.7,17c-4.6,0-8.3,3.7-8.3,9.2s3.7,9.2,8.3,9.2s8.3-3.7,8.3-9.2S53.3,17,48.7,17"/>
	<path id="XMLID_410_" class="st0" d="M80.3,17.4c-0.3,0.1-0.6,0.2-0.9,0.3c-0.3,0.1-0.6,0.4-0.6,0.7v21.3c0,0.4-0.3,0.8-0.8,0.8
		h-5.9c-0.4,0-0.8-0.3-0.8-0.8v-26c0-0.3,0.2-0.6,0.4-0.7c1-0.4,2-0.8,3-1.1c2.3-0.7,5-1.3,8.3-1.3c2.8,0,5.1,0.5,6.9,1.1
		c0.8,0.3,1.5,0.6,2.2,0.8c0.4,0.2,0.6,0.6,0.4,1l-1.5,4.3c-0.2,0.4-0.6,0.6-1.1,0.4c-0.4-0.2-0.8-0.3-1.2-0.5
		c-1.4-0.4-3.1-0.8-5.2-0.8c-1.3,0-2.5,0.2-3.4,0.4C80.4,17.4,80.3,17.4,80.3,17.4"/>
	<path id="XMLID_411_" class="st0" d="M122.3,37.6c0.2,0.3,0.1,0.8-0.2,1c-0.7,0.4-1.5,0.9-2.3,1.3c-2,0.9-4.5,1.7-7.7,1.7
		c-10,0-16.9-6.9-16.9-15.5s6.9-15.5,16.9-15.5c3.1,0,5.7,0.8,7.5,1.5c0,0,0.1,0,0.1,0.1c0.8,0.4,1.5,0.8,2.1,1.2
		c0.3,0.2,0.5,0.7,0.3,1.1l-2.1,3.8c-0.2,0.4-0.7,0.5-1.1,0.3c-0.4-0.2-0.8-0.4-1.2-0.6c-1.3-0.5-2.9-1-5-1c-5.5,0-9.7,4.3-9.7,9.2
		s4.3,9.2,9.7,9.2c2.2,0,4-0.5,5.2-1.1c0.4-0.2,0.9-0.4,1.3-0.7c0.4-0.2,0.9-0.1,1.1,0.3L122.3,37.6z"/>
	<path id="XMLID_412_" class="st0" d="M152.2,29.6h-17.2c-0.6,0-1,0.6-0.7,1.1c1.4,2.6,3.9,4.6,8.7,4.6c2.3,0,4.1-0.5,5.4-1.1
		c0.4-0.2,0.9-0.4,1.3-0.7c0.4-0.2,0.8-0.1,1.1,0.3l2.1,3.8c0.2,0.3,0.1,0.8-0.3,1c-0.7,0.4-1.5,0.9-2.4,1.3c-2,0.9-4.6,1.7-7.9,1.7
		c-10.1,0-16.6-6.6-16.6-15.5c0-9.2,6.3-15.5,15.2-15.5c8.8,0,15.1,6.2,15.2,15.1c0,0.2-0.1,0.4-0.2,0.6l-3.2,3
		C152.6,29.5,152.4,29.6,152.2,29.6 M147.3,23.6c0.5,0,0.9-0.5,0.7-1c-1-3.2-3.5-5.6-6.9-5.6s-6,2.4-7,5.6c-0.2,0.5,0.2,1,0.7,1
		H147.3z"/>
	<path id="XMLID_415_" class="st0" d="M198.4,0.3c11.2,0,17.2,6,17.2,13.8s-6,13.8-17.2,13.8h-9.6c-0.4,0-0.8,0.3-0.8,0.8v11.1
		c0,0.4-0.3,0.8-0.8,0.8h-6.5c-0.4,0-0.8-0.3-0.8-0.8V1.1c0-0.4,0.3-0.8,0.8-0.8H198.4z M188.1,7.7v12.8c0,0.4,0.3,0.8,0.8,0.8h9.6
		c5.4,0,8.9-3.4,8.9-7.2S203.9,7,198.4,7h-9.6C188.4,7,188.1,7.3,188.1,7.7"/>
	<path id="XMLID_418_" class="st0" d="M230.3,28.4h-5.9c-0.4,0-0.8-0.3-0.8-0.8V7.1c0-0.4-0.3-0.8-0.8-0.8H220
		c-0.4,0-0.8-0.3-0.8-0.8V1.1c0-0.4,0.3-0.8,0.8-0.8h10.2c0.4,0,0.8,0.3,0.8,0.8v26.6C231,28.1,230.7,28.4,230.3,28.4"/>
	<path id="XMLID_419_" class="st0" d="M268.9,38.5c0,0.3-0.2,0.6-0.5,0.7c-1.3,0.4-2.5,0.8-3.9,1.1c-2.8,0.7-6.1,1.3-9.3,1.3
		c-9.7,0-15.2-5.4-15.2-12.9V12.6c0-0.4,0.3-0.8,0.8-0.8h5.9c0.4,0,0.8,0.3,0.8,0.8v16.1c0,3.7,2.9,6.6,7.7,6.6
		c1.6,0,3.1-0.2,4.4-0.4c0.4-0.1,0.9-0.2,1.3-0.2c0.3-0.1,0.6-0.4,0.6-0.7V12.6c0-0.4,0.3-0.8,0.8-0.8h5.9c0.4,0,0.8,0.3,0.8,0.8
		v25.9H268.9z"/>
	<path id="XMLID_420_" class="st0" d="M287,41.7c-3.4,0-6.4-1-8.5-2c-1-0.4-1.9-1-2.7-1.6c-0.3-0.2-0.4-0.7-0.2-1l2.1-3.8
		c0.2-0.4,0.7-0.5,1.1-0.3c0.6,0.3,1.2,0.7,1.8,1c1.7,0.7,3.8,1.5,6.4,1.5c5.2,0,6.9-1.8,6.9-3.4c0-4.3-17.2-1.5-17.2-11.8
		c0-4.8,4.6-9.5,12.9-9.5c3.4,0,6.2,0.9,8.2,1.8h0.1c0.8,0.4,1.7,1,2.4,1.5c0.3,0.2,0.4,0.7,0.2,1l-2.1,3.9
		c-0.2,0.4-0.7,0.5-1.1,0.3c-0.5-0.3-1.1-0.6-1.7-0.8c-1.6-0.7-3.5-1.3-6-1.3c-3.7,0-5.1,1.4-5.1,3.1c0,4.3,17.2,1.5,17.2,11.8
		C301.6,36.8,296.7,41.7,287,41.7"/>
	<path id="XMLID_3_" class="st0" d="M231.9,37.1c0,2.5-2.1,4.6-4.6,4.6s-4.6-2.1-4.6-4.6s2.1-4.6,4.6-4.6S231.9,34.5,231.9,37.1"/>
</g>
</svg>
